<svg fill="white" viewBox="0 0 24 24"><path d="M16.365 1.43c0 1.14-.467 
2.28-1.2 3.09-.764.87-2.01 1.54-3.17 1.45-.105-1.13.478-2.33 
1.19-3.12.79-.9 2.17-1.57 3.18-1.42zM20.27 17.33c-.435 
1.01-.64 1.47-1.2 2.37-.78 1.26-1.88 2.84-3.24 
2.86-1.21.02-1.52-.82-3.17-.82-1.66 0-2.01.8-3.23.84-1.36.05-2.4-1.43-3.18-2.69-2.18-3.49-2.41-7.59-1.07-9.75 
1.02-1.63 2.84-2.58 4.47-2.58 1.66 0 2.71.87 4.08.87 1.33 0 2.14-.87 
4.06-.87.79 0 3.03.24 4.46 2.3-.11.07-2.67 1.56-2.64 
4.64.03 3.67 3.27 4.9 3.3 4.92z"/></svg>