<svg fill="white" viewBox="0 0 24 24"><path d="M12 
2.163c3.204 0 3.584.012 4.85.07 1.366.062 2.633.35 
3.608 1.326.976.975 1.264 2.242 1.326 
3.608.058 1.266.07 1.646.07 4.85s-.012 3.584-.07 
4.85c-.062 1.366-.35 2.633-1.326 
3.608-.975.976-2.242 1.264-3.608 
1.326-1.266.058-1.646.07-4.85.07s-3.584-.012-4.85-.07c-1.366-.062-2.633-.35-3.608-1.326-.976-.975-1.264-2.242-1.326-3.608C2.175 
15.584 2.163 15.204 2.163 
12s.012-3.584.07-4.85c.062-1.366.35-2.633 1.326-3.608C4.534 
2.583 5.801 2.295 7.167 2.233 8.433 2.175 8.813 2.163 12 
2.163zm0 1.838c-3.17 0-3.548.012-4.795.07-1.04.05-1.602.218-1.975.363-.497.193-.855.423-1.23.798-.375.374-.605.732-.798 
1.229-.145.373-.314.936-.363 1.976-.059 1.246-.071 1.624-.071 
4.795s.012 3.548.07 4.795c.05 1.04.218 1.602.363 
1.975.193.497.423.855.798 1.23.374.375.732.605 1.229.798.373.145.936.314 
1.976.363 1.246.059 1.624.071 
4.795.071s3.548-.012 4.795-.07c1.04-.05 1.602-.218 
1.975-.363.497-.193.855-.423 1.23-.798.375-.374.605-.732.798-1.229.145-.373.314-.936.363-1.976.059-1.246.071-1.624.071-4.795s-.012-3.548-.07-4.795c-.05-1.04-.218-1.602-.363-1.975-.193-.497-.423-.855-.798-1.23-.374-.375-.732-.605-1.229-.798-.373-.145-.936-.314-1.976-.363-1.246-.059-1.624-.071-4.795-.071zm0 
3.405a4.595 4.595 0 110 9.19 4.595 4.595 0 010-9.19zm0 
7.576a2.981 2.981 0 100-5.962 2.981 2.981 0 000 5.962zm4.95-8.678a1.077 1.077 0 110-2.154 1.077 
1.077 0 010 2.154z"/></svg>