<svg fill="white" viewBox="0 0 24 24"><path d="M12 0C5.373 0 0 5.373 0 12c0 6.628 5.373 12 12 12 
6.628 0 12-5.372 12-12 0-6.627-5.372-12-12-12zm5.487 17.297a.749.749 
0 01-1.027.25c-2.811-1.72-6.34-2.107-10.506-1.155a.75.75 0 
11-.322-1.463c4.57-1.006 8.428-.57 11.759 
1.332.353.216.465.676.25 1.036zm1.47-3.262a.937.937 0 
01-1.281.312c-3.219-1.953-8.142-2.523-11.943-1.38a.937.937 0 
11-.55-1.793c4.334-1.33 9.708-.695 13.39 
1.57.45.273.598.86.384 1.291zm.13-3.497C15.676 
8.22 8.24 8.03 4.32 9.292a1.124 1.124 0 
11-.662-2.146c4.447-1.373 12.676-1.152 17.284 
1.593a1.124 1.124 0 01-1.156 1.89z"/></svg>